<?xml version="1.0" encoding="UTF-8" standalone="no"?><!-- Generator: Gravit.io --><svg xmlns="http://www.w3.org/2000/svg" xmlns:xlink="http://www.w3.org/1999/xlink" style="isolation:isolate" viewBox="0 0 512 512" width="512pt" height="512pt"><defs><clipPath id="_clipPath_DYzggmtotbyHrXrkmW1cpGSEfCVThtRK"><rect width="512" height="512"/></clipPath></defs><g clip-path="url(#_clipPath_DYzggmtotbyHrXrkmW1cpGSEfCVThtRK)"><g><linearGradient id="_lgradient_0" x1="0.5" y1="0" x2="0.49999999999999983" y2="1" gradientTransform="matrix(443.405,0,0,512,34.297,0)" gradientUnits="userSpaceOnUse"><stop offset="1.7391304347826086%" stop-opacity="1" style="stop-color:rgb(116,116,116)"/><stop offset="99.1304347826087%" stop-opacity="1" style="stop-color:rgb(0,0,0)"/></linearGradient><polygon points="256,512,34.297,384,34.297,128,256,0,477.703,128,477.703,384" fill="url(#_lgradient_0)"/><path d=" M 256 492.483 L 153.6 433.362 L 51.2 374.241 L 51.2 256 L 51.2 137.759 L 153.6 78.638 L 256 19.517 L 358.4 78.638 L 460.8 137.759 L 460.8 256 L 460.8 374.241 L 256.017 492.676" fill="none" vector-effect="non-scaling-stroke" stroke-width="7.225" stroke="rgb(0,255,0)" stroke-linejoin="round" stroke-linecap="round" stroke-miterlimit="3"/><g><g><mask id="_mask_JVgC0f9IpALA7oKs0bPGU1iVKUALhb5S" x="-200%" y="-200%" width="400%" height="400%"><rect x="-200%" y="-200%" width="400%" height="400%" style="fill:white;"/><path d=" M 376.29 318.923 L 355.484 324.288 L 327.464 301.161 L 370.34 289.672 L 370.966 288.876 L 369.444 283.202 L 369.895 277.833 L 370.139 274.828 L 371.129 272.257 L 372.509 269.58 L 373.656 267.592 L 374.764 266.244 L 376.46 264.741 L 377.907 263.095 L 380.137 261.236 L 382.277 259.831 L 384.077 258.722 L 387.601 257.789 L 389.898 256.969 L 392.835 256.188 L 395.003 256.44 L 397.509 256.44 L 400.513 256.68 L 403.033 257.474 L 404.719 258.28 L 406.705 259.428 L 408.69 260.574 L 410.127 261.242 L 411.278 262.402 L 412.729 263.902 L 413.984 265.455 L 415.435 266.955 L 416.156 268.86 L 416.629 270.622 L 417.258 272.971 L 417.586 274.982 L 416.884 277.058 L 416.965 278.924 L 416.797 280.649 L 416.576 282.177 L 416.213 283.953 L 415.548 285.39 L 415.133 286.97 L 414.273 288.459 L 413.805 289.838 L 412.801 291.575 L 411.798 293.312 L 411.726 294.591 L 411.898 296.014 L 413.125 295.875 L 414.09 294.778 L 414.95 293.289 L 415.915 292.192 L 416.789 291.536 L 418.068 291.675 L 421.386 293.095 L 422.89 294.791 L 424.785 296.382 L 426.197 298.52 L 427.481 301.745 L 428.163 304.289 L 428.663 307.721 L 428.352 309.694 L 428.328 311.17 L 427.626 313.247 L 426.675 315.181 L 425.762 316.472 L 425.151 318.104 L 423.078 320.549 L 421.382 322.052 L 418.76 324.014 L 417.404 325.225 L 415.513 326.781 L 413.607 327.512 L 411.272 328.978 L 408.779 329.86 L 405.895 330.843 L 403.689 331.221 L 401.731 331.751 L 399.277 331.989 L 397.071 332.38 L 395.099 332.066 L 392.736 331.863 L 390.463 331.207 L 388.778 330.401 L 386.949 329.847 L 385.603 328.738 L 384.257 327.628 L 383.002 326.078 L 381.159 324.684 L 378.746 315.681 L 378.827 314.402 L 378.46 313.025 L 376.579 312.268 L 376.201 313.201 L 376.372 314.624 L 376.348 316.101 L 376.219 317.184 L 376.3 319.052 L 376.29 318.923 Z " fill-rule="evenodd" fill="black" stroke="none"/></mask><path d=" M 376.29 318.923 L 355.484 324.288 L 327.464 301.161 L 370.34 289.672 L 370.966 288.876 L 369.444 283.202 L 369.895 277.833 L 370.139 274.828 L 371.129 272.257 L 372.509 269.58 L 373.656 267.592 L 374.764 266.244 L 376.46 264.741 L 377.907 263.095 L 380.137 261.236 L 382.277 259.831 L 384.077 258.722 L 387.601 257.789 L 389.898 256.969 L 392.835 256.188 L 395.003 256.44 L 397.509 256.44 L 400.513 256.68 L 403.033 257.474 L 404.719 258.28 L 406.705 259.428 L 408.69 260.574 L 410.127 261.242 L 411.278 262.402 L 412.729 263.902 L 413.984 265.455 L 415.435 266.955 L 416.156 268.86 L 416.629 270.622 L 417.258 272.971 L 417.586 274.982 L 416.884 277.058 L 416.965 278.924 L 416.797 280.649 L 416.576 282.177 L 416.213 283.953 L 415.548 285.39 L 415.133 286.97 L 414.273 288.459 L 413.805 289.838 L 412.801 291.575 L 411.798 293.312 L 411.726 294.591 L 411.898 296.014 L 413.125 295.875 L 414.09 294.778 L 414.95 293.289 L 415.915 292.192 L 416.789 291.536 L 418.068 291.675 L 421.386 293.095 L 422.89 294.791 L 424.785 296.382 L 426.197 298.52 L 427.481 301.745 L 428.163 304.289 L 428.663 307.721 L 428.352 309.694 L 428.328 311.17 L 427.626 313.247 L 426.675 315.181 L 425.762 316.472 L 425.151 318.104 L 423.078 320.549 L 421.382 322.052 L 418.76 324.014 L 417.404 325.225 L 415.513 326.781 L 413.607 327.512 L 411.272 328.978 L 408.779 329.86 L 405.895 330.843 L 403.689 331.221 L 401.731 331.751 L 399.277 331.989 L 397.071 332.38 L 395.099 332.066 L 392.736 331.863 L 390.463 331.207 L 388.778 330.401 L 386.949 329.847 L 385.603 328.738 L 384.257 327.628 L 383.002 326.078 L 381.159 324.684 L 378.746 315.681 L 378.827 314.402 L 378.46 313.025 L 376.579 312.268 L 376.201 313.201 L 376.372 314.624 L 376.348 316.101 L 376.219 317.184 L 376.3 319.052 L 376.29 318.923 Z " fill-rule="evenodd" fill="rgb(0,255,0)"/><path d=" M 376.29 318.923 L 355.484 324.288 L 327.464 301.161 L 370.34 289.672 L 370.966 288.876 L 369.444 283.202 L 369.895 277.833 L 370.139 274.828 L 371.129 272.257 L 372.509 269.58 L 373.656 267.592 L 374.764 266.244 L 376.46 264.741 L 377.907 263.095 L 380.137 261.236 L 382.277 259.831 L 384.077 258.722 L 387.601 257.789 L 389.898 256.969 L 392.835 256.188 L 395.003 256.44 L 397.509 256.44 L 400.513 256.68 L 403.033 257.474 L 404.719 258.28 L 406.705 259.428 L 408.69 260.574 L 410.127 261.242 L 411.278 262.402 L 412.729 263.902 L 413.984 265.455 L 415.435 266.955 L 416.156 268.86 L 416.629 270.622 L 417.258 272.971 L 417.586 274.982 L 416.884 277.058 L 416.965 278.924 L 416.797 280.649 L 416.576 282.177 L 416.213 283.953 L 415.548 285.39 L 415.133 286.97 L 414.273 288.459 L 413.805 289.838 L 412.801 291.575 L 411.798 293.312 L 411.726 294.591 L 411.898 296.014 L 413.125 295.875 L 414.09 294.778 L 414.95 293.289 L 415.915 292.192 L 416.789 291.536 L 418.068 291.675 L 421.386 293.095 L 422.89 294.791 L 424.785 296.382 L 426.197 298.52 L 427.481 301.745 L 428.163 304.289 L 428.663 307.721 L 428.352 309.694 L 428.328 311.17 L 427.626 313.247 L 426.675 315.181 L 425.762 316.472 L 425.151 318.104 L 423.078 320.549 L 421.382 322.052 L 418.76 324.014 L 417.404 325.225 L 415.513 326.781 L 413.607 327.512 L 411.272 328.978 L 408.779 329.86 L 405.895 330.843 L 403.689 331.221 L 401.731 331.751 L 399.277 331.989 L 397.071 332.38 L 395.099 332.066 L 392.736 331.863 L 390.463 331.207 L 388.778 330.401 L 386.949 329.847 L 385.603 328.738 L 384.257 327.628 L 383.002 326.078 L 381.159 324.684 L 378.746 315.681 L 378.827 314.402 L 378.46 313.025 L 376.579 312.268 L 376.201 313.201 L 376.372 314.624 L 376.348 316.101 L 376.219 317.184 L 376.3 319.052 L 376.29 318.923 Z " fill-rule="evenodd" fill="rgb(0,255,0)" mask="url(#_mask_JVgC0f9IpALA7oKs0bPGU1iVKUALhb5S)" vector-effect="non-scaling-stroke" stroke-width="1" stroke="rgb(0,0,0)" stroke-linejoin="round" stroke-linecap="round" stroke-miterlimit="4"/><mask id="_mask_d2sjLrPZJmXA2maM2UG5368BKYLfk3QX" x="-200%" y="-200%" width="400%" height="400%"><rect x="-200%" y="-200%" width="400%" height="400%" style="fill:white;"/><path d=" M 278.925 315.004 L 310.732 306.063 L 333.903 324.407 L 337.336 323.902 L 338.72 324.37 L 340.444 324.533 L 343.748 325.113 L 345.824 325.819 L 347.849 326.31 L 349.443 327.558 L 350.933 328.427 L 352.384 329.927 L 353.873 330.797 L 354.971 331.767 L 355.783 333.229 L 356.79 334.635 L 358.007 336.826 L 358.426 338.394 L 358.612 340.652 L 358.888 342.467 L 359.125 344.921 L 358.227 347.051 L 357.367 348.539 L 356.364 350.277 L 354.616 351.584 L 352.868 352.89 L 351.407 353.698 L 350.193 354.655 L 347.987 355.033 L 346.617 355.399 L 344.607 355.727 L 343.327 355.587 L 341.695 354.97 L 339.723 354.655 L 338.233 353.785 L 336.887 352.676 L 337.16 351.342 L 337.824 349.907 L 338.488 348.468 L 338.956 347.089 L 338.537 345.524 L 337.596 345.134 L 336.135 345.94 L 335.666 347.319 L 334.911 349.2 L 334.404 351.224 L 332.317 352.833 L 330.961 354.042 L 327.947 356.109 L 326.29 356.978 L 324.15 358.398 L 321.357 358.941 L 319.008 359.571 L 316.644 359.369 L 313.746 359.508 L 311.631 359.369 L 309.149 357.937 L 307.268 357.18 L 305.621 355.733 L 304.365 354.181 L 303.292 351.741 L 302.61 349.196 L 302.358 345.904 L 302.903 343.241 L 304.389 340.955 L 306.07 338.616 L 307.766 337.113 L 308.926 335.965 L 308.611 334.792 L 307.37 334.088 L 304.877 334.969 L 303.731 336.957 L 278.923 314.855 L 278.925 315.004 Z " fill-rule="evenodd" fill="black" stroke="none"/></mask><path d=" M 278.925 315.004 L 310.732 306.063 L 333.903 324.407 L 337.336 323.902 L 338.72 324.37 L 340.444 324.533 L 343.748 325.113 L 345.824 325.819 L 347.849 326.31 L 349.443 327.558 L 350.933 328.427 L 352.384 329.927 L 353.873 330.797 L 354.971 331.767 L 355.783 333.229 L 356.79 334.635 L 358.007 336.826 L 358.426 338.394 L 358.612 340.652 L 358.888 342.467 L 359.125 344.921 L 358.227 347.051 L 357.367 348.539 L 356.364 350.277 L 354.616 351.584 L 352.868 352.89 L 351.407 353.698 L 350.193 354.655 L 347.987 355.033 L 346.617 355.399 L 344.607 355.727 L 343.327 355.587 L 341.695 354.97 L 339.723 354.655 L 338.233 353.785 L 336.887 352.676 L 337.16 351.342 L 337.824 349.907 L 338.488 348.468 L 338.956 347.089 L 338.537 345.524 L 337.596 345.134 L 336.135 345.94 L 335.666 347.319 L 334.911 349.2 L 334.404 351.224 L 332.317 352.833 L 330.961 354.042 L 327.947 356.109 L 326.29 356.978 L 324.15 358.398 L 321.357 358.941 L 319.008 359.571 L 316.644 359.369 L 313.746 359.508 L 311.631 359.369 L 309.149 357.937 L 307.268 357.18 L 305.621 355.733 L 304.365 354.181 L 303.292 351.741 L 302.61 349.196 L 302.358 345.904 L 302.903 343.241 L 304.389 340.955 L 306.07 338.616 L 307.766 337.113 L 308.926 335.965 L 308.611 334.792 L 307.37 334.088 L 304.877 334.969 L 303.731 336.957 L 278.923 314.855 L 278.925 315.004 Z " fill-rule="evenodd" fill="rgb(0,255,0)"/><path d=" M 278.925 315.004 L 310.732 306.063 L 333.903 324.407 L 337.336 323.902 L 338.72 324.37 L 340.444 324.533 L 343.748 325.113 L 345.824 325.819 L 347.849 326.31 L 349.443 327.558 L 350.933 328.427 L 352.384 329.927 L 353.873 330.797 L 354.971 331.767 L 355.783 333.229 L 356.79 334.635 L 358.007 336.826 L 358.426 338.394 L 358.612 340.652 L 358.888 342.467 L 359.125 344.921 L 358.227 347.051 L 357.367 348.539 L 356.364 350.277 L 354.616 351.584 L 352.868 352.89 L 351.407 353.698 L 350.193 354.655 L 347.987 355.033 L 346.617 355.399 L 344.607 355.727 L 343.327 355.587 L 341.695 354.97 L 339.723 354.655 L 338.233 353.785 L 336.887 352.676 L 337.16 351.342 L 337.824 349.907 L 338.488 348.468 L 338.956 347.089 L 338.537 345.524 L 337.596 345.134 L 336.135 345.94 L 335.666 347.319 L 334.911 349.2 L 334.404 351.224 L 332.317 352.833 L 330.961 354.042 L 327.947 356.109 L 326.29 356.978 L 324.15 358.398 L 321.357 358.941 L 319.008 359.571 L 316.644 359.369 L 313.746 359.508 L 311.631 359.369 L 309.149 357.937 L 307.268 357.18 L 305.621 355.733 L 304.365 354.181 L 303.292 351.741 L 302.61 349.196 L 302.358 345.904 L 302.903 343.241 L 304.389 340.955 L 306.07 338.616 L 307.766 337.113 L 308.926 335.965 L 308.611 334.792 L 307.37 334.088 L 304.877 334.969 L 303.731 336.957 L 278.923 314.855 L 278.925 315.004 Z " fill-rule="evenodd" fill="rgb(0,255,0)" mask="url(#_mask_d2sjLrPZJmXA2maM2UG5368BKYLfk3QX)" vector-effect="non-scaling-stroke" stroke-width="1" stroke="rgb(0,0,0)" stroke-linejoin="round" stroke-linecap="round" stroke-miterlimit="4"/><mask id="_mask_kdp74o2EWAgYkyEzyhf5H9UwJx6dk8Nq" x="-200%" y="-200%" width="400%" height="400%"><rect x="-200%" y="-200%" width="400%" height="400%" style="fill:white;"/><path d=" M 236.914 351.653 L 246.726 324.053 L 275.257 316.198 L 263.013 351.164 L 263.276 352.147 L 265.964 351.227 L 268.027 351.088 L 269.908 351.844 L 270.901 352.424 L 271.908 353.83 L 272.733 356.126 L 273.153 357.694 L 273.338 359.952 L 273.33 362.262 L 273.019 364.234 L 272.603 365.815 L 271.247 367.024 L 270.244 368.761 L 268.744 370.214 L 267.636 371.563 L 265.64 372.723 L 263.5 374.128 L 262.144 375.339 L 260.238 376.07 L 257.941 376.888 L 255.826 376.75 L 253.998 376.196 L 252.26 375.186 L 251.039 369.849 L 250.581 368.929 L 249.498 368.79 L 248.271 368.929 L 247.697 369.924 L 248.17 371.684 L 248.589 373.254 L 248.604 374.085 L 248.524 375.363 L 248.003 376.56 L 246.895 377.91 L 245.877 378.805 L 245.462 380.386 L 243.57 381.941 L 241.287 383.601 L 240.074 384.548 L 238.56 385.152 L 236.994 385.58 L 235.519 385.58 L 234.24 385.441 L 232.908 385.177 L 231.027 384.421 L 229.59 383.752 L 228.01 383.337 L 226.702 381.59 L 225.303 380.282 L 224.492 378.824 L 223.341 377.664 L 222.712 375.314 L 222.278 372.912 L 221.596 370.367 L 222.05 368.149 L 222.948 366.019 L 223.951 364.281 L 225.294 362.243 L 226.402 360.892 L 228.437 359.089 L 230.366 356.893 L 232.272 356.175 L 234.373 355.406 L 236.331 354.876 L 238.68 354.235 L 240.638 353.705 L 241.813 353.39 L 241.995 352.495 L 241.251 352.067 L 240.559 351.827 L 239.136 352.004 L 238.053 351.865 L 236.916 351.537 L 236.914 351.653 Z " fill-rule="evenodd" fill="black" stroke="none"/></mask><path d=" M 236.914 351.653 L 246.726 324.053 L 275.257 316.198 L 263.013 351.164 L 263.276 352.147 L 265.964 351.227 L 268.027 351.088 L 269.908 351.844 L 270.901 352.424 L 271.908 353.83 L 272.733 356.126 L 273.153 357.694 L 273.338 359.952 L 273.33 362.262 L 273.019 364.234 L 272.603 365.815 L 271.247 367.024 L 270.244 368.761 L 268.744 370.214 L 267.636 371.563 L 265.64 372.723 L 263.5 374.128 L 262.144 375.339 L 260.238 376.07 L 257.941 376.888 L 255.826 376.75 L 253.998 376.196 L 252.26 375.186 L 251.039 369.849 L 250.581 368.929 L 249.498 368.79 L 248.271 368.929 L 247.697 369.924 L 248.17 371.684 L 248.589 373.254 L 248.604 374.085 L 248.524 375.363 L 248.003 376.56 L 246.895 377.91 L 245.877 378.805 L 245.462 380.386 L 243.57 381.941 L 241.287 383.601 L 240.074 384.548 L 238.56 385.152 L 236.994 385.58 L 235.519 385.58 L 234.24 385.441 L 232.908 385.177 L 231.027 384.421 L 229.59 383.752 L 228.01 383.337 L 226.702 381.59 L 225.303 380.282 L 224.492 378.824 L 223.341 377.664 L 222.712 375.314 L 222.278 372.912 L 221.596 370.367 L 222.05 368.149 L 222.948 366.019 L 223.951 364.281 L 225.294 362.243 L 226.402 360.892 L 228.437 359.089 L 230.366 356.893 L 232.272 356.175 L 234.373 355.406 L 236.331 354.876 L 238.68 354.235 L 240.638 353.705 L 241.813 353.39 L 241.995 352.495 L 241.251 352.067 L 240.559 351.827 L 239.136 352.004 L 238.053 351.865 L 236.916 351.537 L 236.914 351.653 Z " fill-rule="evenodd" fill="rgb(0,255,0)"/><path d=" M 236.914 351.653 L 246.726 324.053 L 275.257 316.198 L 263.013 351.164 L 263.276 352.147 L 265.964 351.227 L 268.027 351.088 L 269.908 351.844 L 270.901 352.424 L 271.908 353.83 L 272.733 356.126 L 273.153 357.694 L 273.338 359.952 L 273.33 362.262 L 273.019 364.234 L 272.603 365.815 L 271.247 367.024 L 270.244 368.761 L 268.744 370.214 L 267.636 371.563 L 265.64 372.723 L 263.5 374.128 L 262.144 375.339 L 260.238 376.07 L 257.941 376.888 L 255.826 376.75 L 253.998 376.196 L 252.26 375.186 L 251.039 369.849 L 250.581 368.929 L 249.498 368.79 L 248.271 368.929 L 247.697 369.924 L 248.17 371.684 L 248.589 373.254 L 248.604 374.085 L 248.524 375.363 L 248.003 376.56 L 246.895 377.91 L 245.877 378.805 L 245.462 380.386 L 243.57 381.941 L 241.287 383.601 L 240.074 384.548 L 238.56 385.152 L 236.994 385.58 L 235.519 385.58 L 234.24 385.441 L 232.908 385.177 L 231.027 384.421 L 229.59 383.752 L 228.01 383.337 L 226.702 381.59 L 225.303 380.282 L 224.492 378.824 L 223.341 377.664 L 222.712 375.314 L 222.278 372.912 L 221.596 370.367 L 222.05 368.149 L 222.948 366.019 L 223.951 364.281 L 225.294 362.243 L 226.402 360.892 L 228.437 359.089 L 230.366 356.893 L 232.272 356.175 L 234.373 355.406 L 236.331 354.876 L 238.68 354.235 L 240.638 353.705 L 241.813 353.39 L 241.995 352.495 L 241.251 352.067 L 240.559 351.827 L 239.136 352.004 L 238.053 351.865 L 236.916 351.537 L 236.914 351.653 Z " fill-rule="evenodd" fill="rgb(0,255,0)" mask="url(#_mask_kdp74o2EWAgYkyEzyhf5H9UwJx6dk8Nq)" vector-effect="non-scaling-stroke" stroke-width="1" stroke="rgb(0,0,0)" stroke-linejoin="round" stroke-linecap="round" stroke-miterlimit="4"/><mask id="_mask_kwdXcXZomNfdevMgUffS8WH65UTo72SH" x="-200%" y="-200%" width="400%" height="400%"><rect x="-200%" y="-200%" width="400%" height="400%" style="fill:white;"/><path d=" M 191.788 369.621 L 218.805 362.379 L 230.633 328.993 L 186.335 340.655 L 185.59 340.225 L 185.614 338.75 L 186.044 338.005 L 185.362 335.46 L 185.034 333.451 L 184.562 331.687 L 182.653 329.263 L 181.593 327.659 L 180.195 326.351 L 178.653 325.305 L 177.306 324.196 L 175.425 323.44 L 173.845 323.023 L 171.625 322.571 L 169.209 322.154 L 166.755 322.382 L 163.714 322.785 L 160.777 323.566 L 157.449 324.46 L 155.452 325.621 L 153.169 327.282 L 151.278 328.836 L 148.89 330.1 L 146.765 332.349 L 144.639 334.597 L 142.79 338.659 L 141.93 340.148 L 141.175 342.029 L 140.773 344.446 L 140.568 346.809 L 141.159 349.797 L 141.841 352.344 L 143.072 355.372 L 144.59 357.903 L 147.726 360.209 L 149.397 360.209 L 151.212 359.945 L 153.494 358.283 L 154.459 357.186 L 155.777 356.632 L 156.025 356.77 L 157.071 357.54 L 156.798 358.875 L 156.03 359.909 L 154.282 361.216 L 152.73 362.463 L 150.642 364.073 L 149.352 366.307 L 148.063 368.541 L 147.112 370.474 L 146.109 372.214 L 145.903 374.574 L 145.501 376.991 L 145.333 378.715 L 145.819 381.313 L 147.246 384.288 L 147.928 386.834 L 149.837 389.26 L 152.425 391.084 L 154.124 392.727 L 156.907 394.499 L 158.945 395.849 L 161.466 396.643 L 164.484 397.726 L 168.833 399.075 L 172.567 398.923 L 175.517 399.062 L 178.506 398.469 L 181.639 397.638 L 184.223 396.317 L 188.369 391.43 L 189.568 389.639 L 190.609 387.263 L 191.312 385.185 L 192 382.272 L 191.997 379.125 L 191.797 376.031 L 190.867 373.345 L 188.528 371.663 L 187.22 369.913 L 185.625 368.666 L 184.905 366.759 L 185.622 365.524 L 186.457 365.524 L 187.503 366.293 L 189.398 367.884 L 190.3 368.904 L 191.789 369.775 L 191.788 369.621 Z " fill-rule="evenodd" fill="black" stroke="none"/></mask><path d=" M 191.788 369.621 L 218.805 362.379 L 230.633 328.993 L 186.335 340.655 L 185.59 340.225 L 185.614 338.75 L 186.044 338.005 L 185.362 335.46 L 185.034 333.451 L 184.562 331.687 L 182.653 329.263 L 181.593 327.659 L 180.195 326.351 L 178.653 325.305 L 177.306 324.196 L 175.425 323.44 L 173.845 323.023 L 171.625 322.571 L 169.209 322.154 L 166.755 322.382 L 163.714 322.785 L 160.777 323.566 L 157.449 324.46 L 155.452 325.621 L 153.169 327.282 L 151.278 328.836 L 148.89 330.1 L 146.765 332.349 L 144.639 334.597 L 142.79 338.659 L 141.93 340.148 L 141.175 342.029 L 140.773 344.446 L 140.568 346.809 L 141.159 349.797 L 141.841 352.344 L 143.072 355.372 L 144.59 357.903 L 147.726 360.209 L 149.397 360.209 L 151.212 359.945 L 153.494 358.283 L 154.459 357.186 L 155.777 356.632 L 156.025 356.77 L 157.071 357.54 L 156.798 358.875 L 156.03 359.909 L 154.282 361.216 L 152.73 362.463 L 150.642 364.073 L 149.352 366.307 L 148.063 368.541 L 147.112 370.474 L 146.109 372.214 L 145.903 374.574 L 145.501 376.991 L 145.333 378.715 L 145.819 381.313 L 147.246 384.288 L 147.928 386.834 L 149.837 389.26 L 152.425 391.084 L 154.124 392.727 L 156.907 394.499 L 158.945 395.849 L 161.466 396.643 L 164.484 397.726 L 168.833 399.075 L 172.567 398.923 L 175.517 399.062 L 178.506 398.469 L 181.639 397.638 L 184.223 396.317 L 188.369 391.43 L 189.568 389.639 L 190.609 387.263 L 191.312 385.185 L 192 382.272 L 191.997 379.125 L 191.797 376.031 L 190.867 373.345 L 188.528 371.663 L 187.22 369.913 L 185.625 368.666 L 184.905 366.759 L 185.622 365.524 L 186.457 365.524 L 187.503 366.293 L 189.398 367.884 L 190.3 368.904 L 191.789 369.775 L 191.788 369.621 Z " fill-rule="evenodd" fill="rgb(0,255,0)"/><path d=" M 191.788 369.621 L 218.805 362.379 L 230.633 328.993 L 186.335 340.655 L 185.59 340.225 L 185.614 338.75 L 186.044 338.005 L 185.362 335.46 L 185.034 333.451 L 184.562 331.687 L 182.653 329.263 L 181.593 327.659 L 180.195 326.351 L 178.653 325.305 L 177.306 324.196 L 175.425 323.44 L 173.845 323.023 L 171.625 322.571 L 169.209 322.154 L 166.755 322.382 L 163.714 322.785 L 160.777 323.566 L 157.449 324.46 L 155.452 325.621 L 153.169 327.282 L 151.278 328.836 L 148.89 330.1 L 146.765 332.349 L 144.639 334.597 L 142.79 338.659 L 141.93 340.148 L 141.175 342.029 L 140.773 344.446 L 140.568 346.809 L 141.159 349.797 L 141.841 352.344 L 143.072 355.372 L 144.59 357.903 L 147.726 360.209 L 149.397 360.209 L 151.212 359.945 L 153.494 358.283 L 154.459 357.186 L 155.777 356.632 L 156.025 356.77 L 157.071 357.54 L 156.798 358.875 L 156.03 359.909 L 154.282 361.216 L 152.73 362.463 L 150.642 364.073 L 149.352 366.307 L 148.063 368.541 L 147.112 370.474 L 146.109 372.214 L 145.903 374.574 L 145.501 376.991 L 145.333 378.715 L 145.819 381.313 L 147.246 384.288 L 147.928 386.834 L 149.837 389.26 L 152.425 391.084 L 154.124 392.727 L 156.907 394.499 L 158.945 395.849 L 161.466 396.643 L 164.484 397.726 L 168.833 399.075 L 172.567 398.923 L 175.517 399.062 L 178.506 398.469 L 181.639 397.638 L 184.223 396.317 L 188.369 391.43 L 189.568 389.639 L 190.609 387.263 L 191.312 385.185 L 192 382.272 L 191.997 379.125 L 191.797 376.031 L 190.867 373.345 L 188.528 371.663 L 187.22 369.913 L 185.625 368.666 L 184.905 366.759 L 185.622 365.524 L 186.457 365.524 L 187.503 366.293 L 189.398 367.884 L 190.3 368.904 L 191.789 369.775 L 191.788 369.621 Z " fill-rule="evenodd" fill="rgb(0,255,0)" mask="url(#_mask_kwdXcXZomNfdevMgUffS8WH65UTo72SH)" vector-effect="non-scaling-stroke" stroke-width="1" stroke="rgb(0,0,0)" stroke-linejoin="round" stroke-linecap="round" stroke-miterlimit="4"/><mask id="_mask_JfChsVEdMHM2hGPjQ4ZyOq0WMdlQQNnr" x="-200%" y="-200%" width="400%" height="400%"><rect x="-200%" y="-200%" width="400%" height="400%" style="fill:white;"/><path d=" M 373.76 112.925 L 306.01 131.068 L 308.324 136.558 L 310.195 142.762 L 311.845 149.655 L 313.986 155.391 L 315.168 161.349 L 315.956 168.931 L 316.621 173.781 L 317.704 180.206 L 317.753 185.007 L 316.867 188.823 L 315.316 190.054 L 314.208 190.571 L 313.149 189.807 L 312.583 188.478 L 311.328 186.115 L 307.709 181.191 L 303.745 176.587 L 300.373 172.673 L 296.015 168.168 L 291.19 164.229 L 286.217 160.512 L 281.933 157.878 L 277.773 155.637 L 271.668 152.462 L 263.888 149.286 L 259.137 147.193 L 253.45 145.568 L 246.754 144.017 L 238.901 142.146 L 232.008 141.482 L 226.395 141.703 L 216.892 143.008 L 200.496 147.612 L 192.692 151.378 L 185.873 154.874 L 179.054 159.232 L 172.456 164.352 L 166.991 169.793 L 161.919 175.972 L 158.054 181.856 L 152.737 190.201 L 148.305 201.871 L 146.336 210.167 L 145.203 219.276 L 145.056 228.138 L 146.902 235.819 L 146.582 236.952 L 145.499 236.828 L 144.416 235.843 L 140.994 231.732 L 136.858 225.701 L 132.673 219.472 L 129.669 213.785 L 127.183 208.369 L 125.583 204.8 L 123.588 199.679 L 118.936 183.086 L 83.362 192.835 L 83.337 192.86 L 87.817 208.025 L 90.993 217.479 L 96.065 229.32 L 99.954 236.878 L 104.73 245.273 L 109.777 253.151 L 115.71 261.201 L 121.815 267.552 L 126.764 272.722 L 135.331 281.142 L 141.535 285.548 L 146.458 289.044 L 153.13 293.574 L 159.629 296.651 L 167.261 300.91 L 173.662 303.593 L 178.167 305.538 L 184.297 307.237 L 187.423 308.714 L 191.264 309.773 L 194.932 310.905 L 199.314 312.456 L 199.757 314.844 L 200.397 317.207 L 202.736 319.718 L 204.73 321.688 L 207.364 322.894 L 209.383 323.386 L 213.075 323.854 L 214.479 324.322 L 217.162 323.411 L 218.565 322.402 L 219.23 320.949 L 221.298 320.826 L 222.652 321.933 L 225.508 322.426 L 228.61 323.041 L 230.53 323.189 L 232.77 322.155 L 233.533 321.121 L 235.232 319.619 L 237.423 317.551 L 238.555 317.896 L 239.712 319.053 L 241.288 319.472 L 246.089 318.585 L 249.511 318.093 L 251.923 317.65 L 254.853 316.862 L 256.945 315.262 L 257.856 313.957 L 259.038 314.474 L 260.416 314.942 L 264.602 314.818 L 269.107 313.612 L 272.676 312.849 L 276.049 311.323 L 277.551 309.87 L 279.102 307.778 L 280.062 307.531 L 281.514 308.196 L 283.533 308.688 L 288.531 307.777 L 292.149 306.374 L 293.947 305.266 L 295.99 303.469 L 295.965 301.795 L 296.999 301.795 L 301.578 303.297 L 309.406 301.204 L 310.711 299.801 L 312.287 296.231 L 312.631 293.622 L 312.287 290.766 L 313.493 289.806 L 315.388 288.255 L 320.164 285.719 L 326.171 280.747 L 332.769 274.789 L 338.579 269.865 L 342.863 264.72 L 347.22 259.796 L 350.716 254.873 L 354.359 248.866 L 357.806 243.721 L 360.514 238.181 L 364.083 230.304 L 366.496 225.257 L 368.613 219.004 L 371.297 211.791 L 374.005 203.937 L 375.974 194.804 L 377.624 185.326 L 379.298 175.873 L 380.405 162.776 L 380.38 153.322 L 379.248 138.945 L 377.525 127.03 L 373.76 112.925 Z  M 282.549 182.89 L 285.183 184.047 L 288.433 185.278 L 292.175 187.42 L 294.415 189.561 L 297.492 191.654 L 299.954 194.584 L 300.816 195.396 L 302.194 199.852 L 303.278 204.603 L 303.918 207.779 L 304.139 211.718 L 302.613 214.647 L 298.403 219.325 L 296.704 220.827 L 293.775 222.451 L 288.334 225.603 L 285.528 228.434 L 282.82 230.846 L 280.998 233.431 L 278.709 235.105 L 275.927 236.484 L 273.637 238.133 L 273.637 238.159 L 271.84 239.266 L 268.32 240.202 L 265.956 239.98 L 263.076 237.814 L 261.377 236.189 L 259.605 233.506 L 257.463 230.945 L 255.543 228.508 L 253.524 225.702 L 251.062 222.797 L 249.757 221.049 L 247.886 217.972 L 246.508 214.353 L 245.252 212.802 L 244.169 209.527 L 244.169 207.213 L 245.104 204.456 L 245.892 201.92 L 247.665 198.301 L 248.354 196.234 L 250.742 194.141 L 252.318 192.221 L 255.198 190.424 L 257.34 188.996 L 259.482 187.593 L 262.263 186.214 L 265.39 185.377 L 270.338 184.269 L 274.351 183.604 L 278.807 183.038 L 282.549 182.89 Z  M 311.205 196.602 L 312.583 197.07 L 313.986 198.375 L 314.11 200.443 L 313.15 201.55 L 312.731 203.126 L 313.199 204.899 L 313.248 207.385 L 314.135 210.733 L 315.39 214.598 L 316.67 216.986 L 318.197 220.334 L 319.551 222.279 L 320.388 225.43 L 321.422 227.671 L 322.923 230.182 L 323.76 233.333 L 324.327 236.952 L 324.721 240.004 L 324.401 244.288 L 324.351 248.054 L 324.179 251.255 L 322.407 254.037 L 321.446 255.982 L 320.339 257.336 L 318.074 257.533 L 316.695 257.065 L 316.695 254.751 L 317.803 253.397 L 319.108 251.993 L 320.56 249.507 L 321.028 245.814 L 320.93 243.106 L 319.994 239.586 L 318.739 234.884 L 317.778 230.526 L 316.301 227.35 L 315.218 224.913 L 314.012 222.722 L 313.027 219.842 L 311.131 215.928 L 309.777 207.705 L 309.482 205.046 L 309.482 202.732 L 309.606 200.812 L 310.393 198.301 L 311.205 196.602 Z  M 206.872 202.732 L 208.595 202.904 L 210.368 203.274 L 212.411 204.603 L 216.744 208.271 L 221.249 212.53 L 223.022 216.026 L 223.933 219.374 L 224.991 228.089 L 225.385 233.456 L 226.591 240.275 L 226.394 244.313 L 226.665 247.587 L 226.271 250.836 L 224.253 253.495 L 222.209 255.292 L 220.461 256.203 L 218.763 257.262 L 216.153 257.754 L 214.184 257.434 L 209.235 257.729 L 205.469 257.04 L 201.481 256.228 L 197.837 255.095 L 194.243 255.859 L 190.772 256.154 L 189.171 255.736 L 187.399 255.366 L 184.617 255.908 L 180.112 254.8 L 176.419 253.495 L 173.391 251.575 L 171.742 250.147 L 169.748 243.525 L 167.384 234.736 L 167.384 234.687 L 167.335 231.364 L 168.492 227.055 L 170.733 225.209 L 173.662 222.107 L 179.472 218.66 L 183.362 215.952 L 185.824 214.229 L 187.547 213.417 L 189.442 211.3 L 191.757 209.724 L 194.982 208.444 L 199.856 206.277 L 202.342 204.579 L 204.238 203.84 L 206.872 202.732 Z  M 236.98 209.453 L 238.482 210.315 L 238.95 212.087 L 241.264 218.389 L 242.544 221.614 L 244.021 223.929 L 245.031 226.193 L 246.852 229.049 L 248.797 233.16 L 251.013 239.069 L 252.441 242.885 L 254.312 245.1 L 256.133 251.132 L 256.601 255.194 L 256.576 256.671 L 256.601 258.345 L 256.626 260.019 L 256.454 262.579 L 256.06 264.992 L 256.184 267.06 L 256.282 269.743 L 256.454 271.171 L 256.38 272.451 L 256.06 273.584 L 254.214 274.495 L 253.106 273.534 L 252.392 271.614 L 251.826 270.309 L 251.161 269.423 L 249.881 269.276 L 249.881 269.374 L 248.478 270.383 L 248.403 271.663 L 249.314 273.51 L 250.422 274.495 L 250.594 275.922 L 250.274 277.055 L 250.102 278.778 L 249.216 279.418 L 248.182 279.418 L 247.148 278.655 L 246.335 277.202 L 245.129 275.848 L 244.317 274.396 L 242.815 272.697 L 241.83 272.131 L 240.87 270.925 L 239.713 268.931 L 238.581 267.109 L 237.916 264.573 L 236.956 263.342 L 235.75 262.013 L 234.937 259.699 L 233.682 258.148 L 232.993 255.612 L 233.263 254.283 L 233.338 253.003 L 232.722 250.639 L 232.279 248.251 L 231.811 246.479 L 231.86 244.362 L 231.786 241.654 L 231.54 239.216 L 231.614 237.099 L 231.811 234.736 L 231.442 232.52 L 230.753 229.985 L 228.734 220.876 L 228.882 219.153 L 229.546 217.7 L 230.236 217.109 L 231.467 217.823 L 232.796 222.722 L 233.682 223.732 L 234.101 225.307 L 237.203 236.016 L 237.892 237.099 L 239.295 238.404 L 240.206 239.414 L 241.215 238.527 L 240.575 236.189 L 239.271 230.452 L 238.212 226.538 L 237.4 221.935 L 237.252 219.867 L 235.947 214.131 L 235.603 212.112 L 235.43 209.872 L 236.98 209.453 Z  M 151.481 244.239 L 154.804 246.479 L 156.7 248.079 L 158.226 250.615 L 159.802 253.347 L 161.205 255.489 L 162.879 258.591 L 163.446 260.758 L 168.345 279.787 L 169.674 282.372 L 171.053 285.154 L 172.357 287.739 L 173.859 289.438 L 175.459 290.693 L 176.715 292.244 L 177.306 294.386 L 176.665 295.174 L 174.647 294.657 L 172.727 292.244 L 170.142 290.423 L 168.246 287.985 L 165.267 283.136 L 162.83 276.439 L 159.703 266.346 L 158.325 260.437 L 155.863 254.381 L 154.312 252.486 L 152.81 250.787 L 151.161 248.498 L 149.955 247.144 L 149.585 245.79 L 151.481 244.239 Z  M 302.44 281.437 L 304.828 282.471 L 306.035 284.662 L 308.792 293.352 L 308.989 295.617 L 307.684 296.996 L 305.198 297.882 L 302.244 298.67 L 298.526 298.817 L 295.917 296.996 L 293.824 289.192 L 294.193 287.419 L 295.449 285.819 L 298.206 283.603 L 300.496 282.791 L 302.44 281.437 Z  M 283.558 286.065 L 285.675 286.065 L 287.645 286.385 L 289.491 290.915 L 292.101 299.876 L 291.879 301.402 L 290.279 302.461 L 290.279 302.535 L 285.232 304.086 L 283.46 303.717 L 281.564 302.954 L 280.284 302.043 L 276.419 289.241 L 276.936 288.035 L 278.659 287.37 L 280.752 286.607 L 283.558 286.065 Z  M 265.242 288.232 L 268.64 288.379 L 270.092 289.881 L 271.348 291.432 L 272.874 293.968 L 274.129 296.356 L 275.631 303.495 L 275.065 305.341 L 274.843 306.868 L 272.849 308.025 L 269.772 309.059 L 266.744 310.29 L 264.233 310.437 L 261.402 310.757 L 259.383 310.24 L 258.792 307.262 L 258.497 304.603 L 255.838 293.155 L 255.838 293.081 L 256.404 291.235 L 258.743 289.782 L 261.919 289.142 L 265.242 288.232 Z  M 249.831 292.54 L 251.185 294.485 L 251.185 294.534 L 255.026 308.812 L 254.853 310.536 L 254.361 312.554 L 250.57 313.367 L 247.64 314.155 L 245.72 314.007 L 242.298 314.499 L 240.378 314.376 L 238.876 313.489 L 238.088 310.56 L 238.014 308.689 L 237.94 306.818 L 238.038 304.898 L 237.57 302.313 L 238.309 299.605 L 240.229 297.389 L 242.272 295.592 L 244.488 293.746 L 246.925 292.687 L 249.831 292.54 Z  M 228.019 301.993 L 230.53 302.781 L 232.377 304.184 L 233.386 305.587 L 234.076 308.123 L 234.371 310.782 L 234.247 313.539 L 233.312 316.321 L 231.687 317.995 L 228.487 318.66 L 225.139 318.783 L 222.037 317.306 L 221.101 315.46 L 221.101 315.385 L 219.23 308.345 L 219.526 306.375 L 221.52 304.356 L 223.883 302.264 L 228.019 301.993 Z  M 212.411 306.375 L 214.824 307.606 L 214.824 307.631 L 216.572 314.918 L 216.867 316.74 L 216.695 318.463 L 215.932 319.497 L 213.568 320.138 L 210.466 320.335 L 208.152 319.473 L 206.478 318.685 L 204.878 317.43 L 203.376 315.731 L 202.441 313.047 L 202.539 310.29 L 203.549 308.542 L 206.823 307.459 L 210.442 306.893 L 212.411 306.375 Z " fill-rule="evenodd" fill="black" stroke="none"/></mask><path d=" M 373.76 112.925 L 306.01 131.068 L 308.324 136.558 L 310.195 142.762 L 311.845 149.655 L 313.986 155.391 L 315.168 161.349 L 315.956 168.931 L 316.621 173.781 L 317.704 180.206 L 317.753 185.007 L 316.867 188.823 L 315.316 190.054 L 314.208 190.571 L 313.149 189.807 L 312.583 188.478 L 311.328 186.115 L 307.709 181.191 L 303.745 176.587 L 300.373 172.673 L 296.015 168.168 L 291.19 164.229 L 286.217 160.512 L 281.933 157.878 L 277.773 155.637 L 271.668 152.462 L 263.888 149.286 L 259.137 147.193 L 253.45 145.568 L 246.754 144.017 L 238.901 142.146 L 232.008 141.482 L 226.395 141.703 L 216.892 143.008 L 200.496 147.612 L 192.692 151.378 L 185.873 154.874 L 179.054 159.232 L 172.456 164.352 L 166.991 169.793 L 161.919 175.972 L 158.054 181.856 L 152.737 190.201 L 148.305 201.871 L 146.336 210.167 L 145.203 219.276 L 145.056 228.138 L 146.902 235.819 L 146.582 236.952 L 145.499 236.828 L 144.416 235.843 L 140.994 231.732 L 136.858 225.701 L 132.673 219.472 L 129.669 213.785 L 127.183 208.369 L 125.583 204.8 L 123.588 199.679 L 118.936 183.086 L 83.362 192.835 L 83.337 192.86 L 87.817 208.025 L 90.993 217.479 L 96.065 229.32 L 99.954 236.878 L 104.73 245.273 L 109.777 253.151 L 115.71 261.201 L 121.815 267.552 L 126.764 272.722 L 135.331 281.142 L 141.535 285.548 L 146.458 289.044 L 153.13 293.574 L 159.629 296.651 L 167.261 300.91 L 173.662 303.593 L 178.167 305.538 L 184.297 307.237 L 187.423 308.714 L 191.264 309.773 L 194.932 310.905 L 199.314 312.456 L 199.757 314.844 L 200.397 317.207 L 202.736 319.718 L 204.73 321.688 L 207.364 322.894 L 209.383 323.386 L 213.075 323.854 L 214.479 324.322 L 217.162 323.411 L 218.565 322.402 L 219.23 320.949 L 221.298 320.826 L 222.652 321.933 L 225.508 322.426 L 228.61 323.041 L 230.53 323.189 L 232.77 322.155 L 233.533 321.121 L 235.232 319.619 L 237.423 317.551 L 238.555 317.896 L 239.712 319.053 L 241.288 319.472 L 246.089 318.585 L 249.511 318.093 L 251.923 317.65 L 254.853 316.862 L 256.945 315.262 L 257.856 313.957 L 259.038 314.474 L 260.416 314.942 L 264.602 314.818 L 269.107 313.612 L 272.676 312.849 L 276.049 311.323 L 277.551 309.87 L 279.102 307.778 L 280.062 307.531 L 281.514 308.196 L 283.533 308.688 L 288.531 307.777 L 292.149 306.374 L 293.947 305.266 L 295.99 303.469 L 295.965 301.795 L 296.999 301.795 L 301.578 303.297 L 309.406 301.204 L 310.711 299.801 L 312.287 296.231 L 312.631 293.622 L 312.287 290.766 L 313.493 289.806 L 315.388 288.255 L 320.164 285.719 L 326.171 280.747 L 332.769 274.789 L 338.579 269.865 L 342.863 264.72 L 347.22 259.796 L 350.716 254.873 L 354.359 248.866 L 357.806 243.721 L 360.514 238.181 L 364.083 230.304 L 366.496 225.257 L 368.613 219.004 L 371.297 211.791 L 374.005 203.937 L 375.974 194.804 L 377.624 185.326 L 379.298 175.873 L 380.405 162.776 L 380.38 153.322 L 379.248 138.945 L 377.525 127.03 L 373.76 112.925 Z  M 282.549 182.89 L 285.183 184.047 L 288.433 185.278 L 292.175 187.42 L 294.415 189.561 L 297.492 191.654 L 299.954 194.584 L 300.816 195.396 L 302.194 199.852 L 303.278 204.603 L 303.918 207.779 L 304.139 211.718 L 302.613 214.647 L 298.403 219.325 L 296.704 220.827 L 293.775 222.451 L 288.334 225.603 L 285.528 228.434 L 282.82 230.846 L 280.998 233.431 L 278.709 235.105 L 275.927 236.484 L 273.637 238.133 L 273.637 238.159 L 271.84 239.266 L 268.32 240.202 L 265.956 239.98 L 263.076 237.814 L 261.377 236.189 L 259.605 233.506 L 257.463 230.945 L 255.543 228.508 L 253.524 225.702 L 251.062 222.797 L 249.757 221.049 L 247.886 217.972 L 246.508 214.353 L 245.252 212.802 L 244.169 209.527 L 244.169 207.213 L 245.104 204.456 L 245.892 201.92 L 247.665 198.301 L 248.354 196.234 L 250.742 194.141 L 252.318 192.221 L 255.198 190.424 L 257.34 188.996 L 259.482 187.593 L 262.263 186.214 L 265.39 185.377 L 270.338 184.269 L 274.351 183.604 L 278.807 183.038 L 282.549 182.89 Z  M 311.205 196.602 L 312.583 197.07 L 313.986 198.375 L 314.11 200.443 L 313.15 201.55 L 312.731 203.126 L 313.199 204.899 L 313.248 207.385 L 314.135 210.733 L 315.39 214.598 L 316.67 216.986 L 318.197 220.334 L 319.551 222.279 L 320.388 225.43 L 321.422 227.671 L 322.923 230.182 L 323.76 233.333 L 324.327 236.952 L 324.721 240.004 L 324.401 244.288 L 324.351 248.054 L 324.179 251.255 L 322.407 254.037 L 321.446 255.982 L 320.339 257.336 L 318.074 257.533 L 316.695 257.065 L 316.695 254.751 L 317.803 253.397 L 319.108 251.993 L 320.56 249.507 L 321.028 245.814 L 320.93 243.106 L 319.994 239.586 L 318.739 234.884 L 317.778 230.526 L 316.301 227.35 L 315.218 224.913 L 314.012 222.722 L 313.027 219.842 L 311.131 215.928 L 309.777 207.705 L 309.482 205.046 L 309.482 202.732 L 309.606 200.812 L 310.393 198.301 L 311.205 196.602 Z  M 206.872 202.732 L 208.595 202.904 L 210.368 203.274 L 212.411 204.603 L 216.744 208.271 L 221.249 212.53 L 223.022 216.026 L 223.933 219.374 L 224.991 228.089 L 225.385 233.456 L 226.591 240.275 L 226.394 244.313 L 226.665 247.587 L 226.271 250.836 L 224.253 253.495 L 222.209 255.292 L 220.461 256.203 L 218.763 257.262 L 216.153 257.754 L 214.184 257.434 L 209.235 257.729 L 205.469 257.04 L 201.481 256.228 L 197.837 255.095 L 194.243 255.859 L 190.772 256.154 L 189.171 255.736 L 187.399 255.366 L 184.617 255.908 L 180.112 254.8 L 176.419 253.495 L 173.391 251.575 L 171.742 250.147 L 169.748 243.525 L 167.384 234.736 L 167.384 234.687 L 167.335 231.364 L 168.492 227.055 L 170.733 225.209 L 173.662 222.107 L 179.472 218.66 L 183.362 215.952 L 185.824 214.229 L 187.547 213.417 L 189.442 211.3 L 191.757 209.724 L 194.982 208.444 L 199.856 206.277 L 202.342 204.579 L 204.238 203.84 L 206.872 202.732 Z  M 236.98 209.453 L 238.482 210.315 L 238.95 212.087 L 241.264 218.389 L 242.544 221.614 L 244.021 223.929 L 245.031 226.193 L 246.852 229.049 L 248.797 233.16 L 251.013 239.069 L 252.441 242.885 L 254.312 245.1 L 256.133 251.132 L 256.601 255.194 L 256.576 256.671 L 256.601 258.345 L 256.626 260.019 L 256.454 262.579 L 256.06 264.992 L 256.184 267.06 L 256.282 269.743 L 256.454 271.171 L 256.38 272.451 L 256.06 273.584 L 254.214 274.495 L 253.106 273.534 L 252.392 271.614 L 251.826 270.309 L 251.161 269.423 L 249.881 269.276 L 249.881 269.374 L 248.478 270.383 L 248.403 271.663 L 249.314 273.51 L 250.422 274.495 L 250.594 275.922 L 250.274 277.055 L 250.102 278.778 L 249.216 279.418 L 248.182 279.418 L 247.148 278.655 L 246.335 277.202 L 245.129 275.848 L 244.317 274.396 L 242.815 272.697 L 241.83 272.131 L 240.87 270.925 L 239.713 268.931 L 238.581 267.109 L 237.916 264.573 L 236.956 263.342 L 235.75 262.013 L 234.937 259.699 L 233.682 258.148 L 232.993 255.612 L 233.263 254.283 L 233.338 253.003 L 232.722 250.639 L 232.279 248.251 L 231.811 246.479 L 231.86 244.362 L 231.786 241.654 L 231.54 239.216 L 231.614 237.099 L 231.811 234.736 L 231.442 232.52 L 230.753 229.985 L 228.734 220.876 L 228.882 219.153 L 229.546 217.7 L 230.236 217.109 L 231.467 217.823 L 232.796 222.722 L 233.682 223.732 L 234.101 225.307 L 237.203 236.016 L 237.892 237.099 L 239.295 238.404 L 240.206 239.414 L 241.215 238.527 L 240.575 236.189 L 239.271 230.452 L 238.212 226.538 L 237.4 221.935 L 237.252 219.867 L 235.947 214.131 L 235.603 212.112 L 235.43 209.872 L 236.98 209.453 Z  M 151.481 244.239 L 154.804 246.479 L 156.7 248.079 L 158.226 250.615 L 159.802 253.347 L 161.205 255.489 L 162.879 258.591 L 163.446 260.758 L 168.345 279.787 L 169.674 282.372 L 171.053 285.154 L 172.357 287.739 L 173.859 289.438 L 175.459 290.693 L 176.715 292.244 L 177.306 294.386 L 176.665 295.174 L 174.647 294.657 L 172.727 292.244 L 170.142 290.423 L 168.246 287.985 L 165.267 283.136 L 162.83 276.439 L 159.703 266.346 L 158.325 260.437 L 155.863 254.381 L 154.312 252.486 L 152.81 250.787 L 151.161 248.498 L 149.955 247.144 L 149.585 245.79 L 151.481 244.239 Z  M 302.44 281.437 L 304.828 282.471 L 306.035 284.662 L 308.792 293.352 L 308.989 295.617 L 307.684 296.996 L 305.198 297.882 L 302.244 298.67 L 298.526 298.817 L 295.917 296.996 L 293.824 289.192 L 294.193 287.419 L 295.449 285.819 L 298.206 283.603 L 300.496 282.791 L 302.44 281.437 Z  M 283.558 286.065 L 285.675 286.065 L 287.645 286.385 L 289.491 290.915 L 292.101 299.876 L 291.879 301.402 L 290.279 302.461 L 290.279 302.535 L 285.232 304.086 L 283.46 303.717 L 281.564 302.954 L 280.284 302.043 L 276.419 289.241 L 276.936 288.035 L 278.659 287.37 L 280.752 286.607 L 283.558 286.065 Z  M 265.242 288.232 L 268.64 288.379 L 270.092 289.881 L 271.348 291.432 L 272.874 293.968 L 274.129 296.356 L 275.631 303.495 L 275.065 305.341 L 274.843 306.868 L 272.849 308.025 L 269.772 309.059 L 266.744 310.29 L 264.233 310.437 L 261.402 310.757 L 259.383 310.24 L 258.792 307.262 L 258.497 304.603 L 255.838 293.155 L 255.838 293.081 L 256.404 291.235 L 258.743 289.782 L 261.919 289.142 L 265.242 288.232 Z  M 249.831 292.54 L 251.185 294.485 L 251.185 294.534 L 255.026 308.812 L 254.853 310.536 L 254.361 312.554 L 250.57 313.367 L 247.64 314.155 L 245.72 314.007 L 242.298 314.499 L 240.378 314.376 L 238.876 313.489 L 238.088 310.56 L 238.014 308.689 L 237.94 306.818 L 238.038 304.898 L 237.57 302.313 L 238.309 299.605 L 240.229 297.389 L 242.272 295.592 L 244.488 293.746 L 246.925 292.687 L 249.831 292.54 Z  M 228.019 301.993 L 230.53 302.781 L 232.377 304.184 L 233.386 305.587 L 234.076 308.123 L 234.371 310.782 L 234.247 313.539 L 233.312 316.321 L 231.687 317.995 L 228.487 318.66 L 225.139 318.783 L 222.037 317.306 L 221.101 315.46 L 221.101 315.385 L 219.23 308.345 L 219.526 306.375 L 221.52 304.356 L 223.883 302.264 L 228.019 301.993 Z  M 212.411 306.375 L 214.824 307.606 L 214.824 307.631 L 216.572 314.918 L 216.867 316.74 L 216.695 318.463 L 215.932 319.497 L 213.568 320.138 L 210.466 320.335 L 208.152 319.473 L 206.478 318.685 L 204.878 317.43 L 203.376 315.731 L 202.441 313.047 L 202.539 310.29 L 203.549 308.542 L 206.823 307.459 L 210.442 306.893 L 212.411 306.375 Z " fill-rule="evenodd" fill="rgb(0,255,0)"/><path d=" M 373.76 112.925 L 306.01 131.068 L 308.324 136.558 L 310.195 142.762 L 311.845 149.655 L 313.986 155.391 L 315.168 161.349 L 315.956 168.931 L 316.621 173.781 L 317.704 180.206 L 317.753 185.007 L 316.867 188.823 L 315.316 190.054 L 314.208 190.571 L 313.149 189.807 L 312.583 188.478 L 311.328 186.115 L 307.709 181.191 L 303.745 176.587 L 300.373 172.673 L 296.015 168.168 L 291.19 164.229 L 286.217 160.512 L 281.933 157.878 L 277.773 155.637 L 271.668 152.462 L 263.888 149.286 L 259.137 147.193 L 253.45 145.568 L 246.754 144.017 L 238.901 142.146 L 232.008 141.482 L 226.395 141.703 L 216.892 143.008 L 200.496 147.612 L 192.692 151.378 L 185.873 154.874 L 179.054 159.232 L 172.456 164.352 L 166.991 169.793 L 161.919 175.972 L 158.054 181.856 L 152.737 190.201 L 148.305 201.871 L 146.336 210.167 L 145.203 219.276 L 145.056 228.138 L 146.902 235.819 L 146.582 236.952 L 145.499 236.828 L 144.416 235.843 L 140.994 231.732 L 136.858 225.701 L 132.673 219.472 L 129.669 213.785 L 127.183 208.369 L 125.583 204.8 L 123.588 199.679 L 118.936 183.086 L 83.362 192.835 L 83.337 192.86 L 87.817 208.025 L 90.993 217.479 L 96.065 229.32 L 99.954 236.878 L 104.73 245.273 L 109.777 253.151 L 115.71 261.201 L 121.815 267.552 L 126.764 272.722 L 135.331 281.142 L 141.535 285.548 L 146.458 289.044 L 153.13 293.574 L 159.629 296.651 L 167.261 300.91 L 173.662 303.593 L 178.167 305.538 L 184.297 307.237 L 187.423 308.714 L 191.264 309.773 L 194.932 310.905 L 199.314 312.456 L 199.757 314.844 L 200.397 317.207 L 202.736 319.718 L 204.73 321.688 L 207.364 322.894 L 209.383 323.386 L 213.075 323.854 L 214.479 324.322 L 217.162 323.411 L 218.565 322.402 L 219.23 320.949 L 221.298 320.826 L 222.652 321.933 L 225.508 322.426 L 228.61 323.041 L 230.53 323.189 L 232.77 322.155 L 233.533 321.121 L 235.232 319.619 L 237.423 317.551 L 238.555 317.896 L 239.712 319.053 L 241.288 319.472 L 246.089 318.585 L 249.511 318.093 L 251.923 317.65 L 254.853 316.862 L 256.945 315.262 L 257.856 313.957 L 259.038 314.474 L 260.416 314.942 L 264.602 314.818 L 269.107 313.612 L 272.676 312.849 L 276.049 311.323 L 277.551 309.87 L 279.102 307.778 L 280.062 307.531 L 281.514 308.196 L 283.533 308.688 L 288.531 307.777 L 292.149 306.374 L 293.947 305.266 L 295.99 303.469 L 295.965 301.795 L 296.999 301.795 L 301.578 303.297 L 309.406 301.204 L 310.711 299.801 L 312.287 296.231 L 312.631 293.622 L 312.287 290.766 L 313.493 289.806 L 315.388 288.255 L 320.164 285.719 L 326.171 280.747 L 332.769 274.789 L 338.579 269.865 L 342.863 264.72 L 347.22 259.796 L 350.716 254.873 L 354.359 248.866 L 357.806 243.721 L 360.514 238.181 L 364.083 230.304 L 366.496 225.257 L 368.613 219.004 L 371.297 211.791 L 374.005 203.937 L 375.974 194.804 L 377.624 185.326 L 379.298 175.873 L 380.405 162.776 L 380.38 153.322 L 379.248 138.945 L 377.525 127.03 L 373.76 112.925 Z  M 282.549 182.89 L 285.183 184.047 L 288.433 185.278 L 292.175 187.42 L 294.415 189.561 L 297.492 191.654 L 299.954 194.584 L 300.816 195.396 L 302.194 199.852 L 303.278 204.603 L 303.918 207.779 L 304.139 211.718 L 302.613 214.647 L 298.403 219.325 L 296.704 220.827 L 293.775 222.451 L 288.334 225.603 L 285.528 228.434 L 282.82 230.846 L 280.998 233.431 L 278.709 235.105 L 275.927 236.484 L 273.637 238.133 L 273.637 238.159 L 271.84 239.266 L 268.32 240.202 L 265.956 239.98 L 263.076 237.814 L 261.377 236.189 L 259.605 233.506 L 257.463 230.945 L 255.543 228.508 L 253.524 225.702 L 251.062 222.797 L 249.757 221.049 L 247.886 217.972 L 246.508 214.353 L 245.252 212.802 L 244.169 209.527 L 244.169 207.213 L 245.104 204.456 L 245.892 201.92 L 247.665 198.301 L 248.354 196.234 L 250.742 194.141 L 252.318 192.221 L 255.198 190.424 L 257.34 188.996 L 259.482 187.593 L 262.263 186.214 L 265.39 185.377 L 270.338 184.269 L 274.351 183.604 L 278.807 183.038 L 282.549 182.89 Z  M 311.205 196.602 L 312.583 197.07 L 313.986 198.375 L 314.11 200.443 L 313.15 201.55 L 312.731 203.126 L 313.199 204.899 L 313.248 207.385 L 314.135 210.733 L 315.39 214.598 L 316.67 216.986 L 318.197 220.334 L 319.551 222.279 L 320.388 225.43 L 321.422 227.671 L 322.923 230.182 L 323.76 233.333 L 324.327 236.952 L 324.721 240.004 L 324.401 244.288 L 324.351 248.054 L 324.179 251.255 L 322.407 254.037 L 321.446 255.982 L 320.339 257.336 L 318.074 257.533 L 316.695 257.065 L 316.695 254.751 L 317.803 253.397 L 319.108 251.993 L 320.56 249.507 L 321.028 245.814 L 320.93 243.106 L 319.994 239.586 L 318.739 234.884 L 317.778 230.526 L 316.301 227.35 L 315.218 224.913 L 314.012 222.722 L 313.027 219.842 L 311.131 215.928 L 309.777 207.705 L 309.482 205.046 L 309.482 202.732 L 309.606 200.812 L 310.393 198.301 L 311.205 196.602 Z  M 206.872 202.732 L 208.595 202.904 L 210.368 203.274 L 212.411 204.603 L 216.744 208.271 L 221.249 212.53 L 223.022 216.026 L 223.933 219.374 L 224.991 228.089 L 225.385 233.456 L 226.591 240.275 L 226.394 244.313 L 226.665 247.587 L 226.271 250.836 L 224.253 253.495 L 222.209 255.292 L 220.461 256.203 L 218.763 257.262 L 216.153 257.754 L 214.184 257.434 L 209.235 257.729 L 205.469 257.04 L 201.481 256.228 L 197.837 255.095 L 194.243 255.859 L 190.772 256.154 L 189.171 255.736 L 187.399 255.366 L 184.617 255.908 L 180.112 254.8 L 176.419 253.495 L 173.391 251.575 L 171.742 250.147 L 169.748 243.525 L 167.384 234.736 L 167.384 234.687 L 167.335 231.364 L 168.492 227.055 L 170.733 225.209 L 173.662 222.107 L 179.472 218.66 L 183.362 215.952 L 185.824 214.229 L 187.547 213.417 L 189.442 211.3 L 191.757 209.724 L 194.982 208.444 L 199.856 206.277 L 202.342 204.579 L 204.238 203.84 L 206.872 202.732 Z  M 236.98 209.453 L 238.482 210.315 L 238.95 212.087 L 241.264 218.389 L 242.544 221.614 L 244.021 223.929 L 245.031 226.193 L 246.852 229.049 L 248.797 233.16 L 251.013 239.069 L 252.441 242.885 L 254.312 245.1 L 256.133 251.132 L 256.601 255.194 L 256.576 256.671 L 256.601 258.345 L 256.626 260.019 L 256.454 262.579 L 256.06 264.992 L 256.184 267.06 L 256.282 269.743 L 256.454 271.171 L 256.38 272.451 L 256.06 273.584 L 254.214 274.495 L 253.106 273.534 L 252.392 271.614 L 251.826 270.309 L 251.161 269.423 L 249.881 269.276 L 249.881 269.374 L 248.478 270.383 L 248.403 271.663 L 249.314 273.51 L 250.422 274.495 L 250.594 275.922 L 250.274 277.055 L 250.102 278.778 L 249.216 279.418 L 248.182 279.418 L 247.148 278.655 L 246.335 277.202 L 245.129 275.848 L 244.317 274.396 L 242.815 272.697 L 241.83 272.131 L 240.87 270.925 L 239.713 268.931 L 238.581 267.109 L 237.916 264.573 L 236.956 263.342 L 235.75 262.013 L 234.937 259.699 L 233.682 258.148 L 232.993 255.612 L 233.263 254.283 L 233.338 253.003 L 232.722 250.639 L 232.279 248.251 L 231.811 246.479 L 231.86 244.362 L 231.786 241.654 L 231.54 239.216 L 231.614 237.099 L 231.811 234.736 L 231.442 232.52 L 230.753 229.985 L 228.734 220.876 L 228.882 219.153 L 229.546 217.7 L 230.236 217.109 L 231.467 217.823 L 232.796 222.722 L 233.682 223.732 L 234.101 225.307 L 237.203 236.016 L 237.892 237.099 L 239.295 238.404 L 240.206 239.414 L 241.215 238.527 L 240.575 236.189 L 239.271 230.452 L 238.212 226.538 L 237.4 221.935 L 237.252 219.867 L 235.947 214.131 L 235.603 212.112 L 235.43 209.872 L 236.98 209.453 Z  M 151.481 244.239 L 154.804 246.479 L 156.7 248.079 L 158.226 250.615 L 159.802 253.347 L 161.205 255.489 L 162.879 258.591 L 163.446 260.758 L 168.345 279.787 L 169.674 282.372 L 171.053 285.154 L 172.357 287.739 L 173.859 289.438 L 175.459 290.693 L 176.715 292.244 L 177.306 294.386 L 176.665 295.174 L 174.647 294.657 L 172.727 292.244 L 170.142 290.423 L 168.246 287.985 L 165.267 283.136 L 162.83 276.439 L 159.703 266.346 L 158.325 260.437 L 155.863 254.381 L 154.312 252.486 L 152.81 250.787 L 151.161 248.498 L 149.955 247.144 L 149.585 245.79 L 151.481 244.239 Z  M 302.44 281.437 L 304.828 282.471 L 306.035 284.662 L 308.792 293.352 L 308.989 295.617 L 307.684 296.996 L 305.198 297.882 L 302.244 298.67 L 298.526 298.817 L 295.917 296.996 L 293.824 289.192 L 294.193 287.419 L 295.449 285.819 L 298.206 283.603 L 300.496 282.791 L 302.44 281.437 Z  M 283.558 286.065 L 285.675 286.065 L 287.645 286.385 L 289.491 290.915 L 292.101 299.876 L 291.879 301.402 L 290.279 302.461 L 290.279 302.535 L 285.232 304.086 L 283.46 303.717 L 281.564 302.954 L 280.284 302.043 L 276.419 289.241 L 276.936 288.035 L 278.659 287.37 L 280.752 286.607 L 283.558 286.065 Z  M 265.242 288.232 L 268.64 288.379 L 270.092 289.881 L 271.348 291.432 L 272.874 293.968 L 274.129 296.356 L 275.631 303.495 L 275.065 305.341 L 274.843 306.868 L 272.849 308.025 L 269.772 309.059 L 266.744 310.29 L 264.233 310.437 L 261.402 310.757 L 259.383 310.24 L 258.792 307.262 L 258.497 304.603 L 255.838 293.155 L 255.838 293.081 L 256.404 291.235 L 258.743 289.782 L 261.919 289.142 L 265.242 288.232 Z  M 249.831 292.54 L 251.185 294.485 L 251.185 294.534 L 255.026 308.812 L 254.853 310.536 L 254.361 312.554 L 250.57 313.367 L 247.64 314.155 L 245.72 314.007 L 242.298 314.499 L 240.378 314.376 L 238.876 313.489 L 238.088 310.56 L 238.014 308.689 L 237.94 306.818 L 238.038 304.898 L 237.57 302.313 L 238.309 299.605 L 240.229 297.389 L 242.272 295.592 L 244.488 293.746 L 246.925 292.687 L 249.831 292.54 Z  M 228.019 301.993 L 230.53 302.781 L 232.377 304.184 L 233.386 305.587 L 234.076 308.123 L 234.371 310.782 L 234.247 313.539 L 233.312 316.321 L 231.687 317.995 L 228.487 318.66 L 225.139 318.783 L 222.037 317.306 L 221.101 315.46 L 221.101 315.385 L 219.23 308.345 L 219.526 306.375 L 221.52 304.356 L 223.883 302.264 L 228.019 301.993 Z  M 212.411 306.375 L 214.824 307.606 L 214.824 307.631 L 216.572 314.918 L 216.867 316.74 L 216.695 318.463 L 215.932 319.497 L 213.568 320.138 L 210.466 320.335 L 208.152 319.473 L 206.478 318.685 L 204.878 317.43 L 203.376 315.731 L 202.441 313.047 L 202.539 310.29 L 203.549 308.542 L 206.823 307.459 L 210.442 306.893 L 212.411 306.375 Z " fill-rule="evenodd" fill="rgb(0,255,0)" mask="url(#_mask_JfChsVEdMHM2hGPjQ4ZyOq0WMdlQQNnr)" vector-effect="non-scaling-stroke" stroke-width="1" stroke="rgb(0,0,0)" stroke-linejoin="round" stroke-linecap="round" stroke-miterlimit="4"/></g></g></g></g></svg>